<svg xmlns="http://www.w3.org/2000/svg" width="16.5" height="15.416" viewBox="0 0 16.5 15.416">
  <g id="Group_38" data-name="Group 38" transform="translate(0 -16.814)">
    <g id="Group_29" data-name="Group 29" transform="translate(0 16.814)">
      <g id="Group_28" data-name="Group 28">
        <path id="Path_6" data-name="Path 6" d="M16.487,22.64a.244.244,0,0,0-.015-.084.421.421,0,0,0-.166-.235L13.944,20.68V18.92a.423.423,0,0,0-.423-.423H10.8L8.492,16.89a.422.422,0,0,0-.481,0L5.684,18.5H2.978a.423.423,0,0,0-.423.423v1.739L.183,22.3A.422.422,0,0,0,0,22.641s0,0,0,.007l.013,9.16a.422.422,0,0,0,.423.422h0l15.642-.021a.423.423,0,0,0,.422-.423Zm-2.543-.931,1.35.938-1.35.939ZM8.25,17.751l1.073.746H7.171ZM3.4,19.342h9.7v4.831L9.843,26.437l-1.328-1.03-.006,0a.422.422,0,0,0-.512,0L6.66,26.445,3.4,24.192Zm-.845,2.344v1.922l-1.39-.961ZM.846,23.454l5.113,3.534-5.1,3.958Zm.826,7.929,6.584-5.107,6.561,5.089Zm8.871-4.4,5.1-3.546.01,7.51Z" transform="translate(0 -16.814)"/>
      </g>
    </g>
    <g id="Group_31" data-name="Group 31" transform="translate(4.967 21.032)">
      <g id="Group_30" data-name="Group 30">
        <path id="Path_7" data-name="Path 7" d="M160.266,147.713h-5.721a.423.423,0,0,0,0,.845h5.721a.423.423,0,1,0,0-.845Z" transform="translate(-154.122 -147.713)"/>
      </g>
    </g>
    <g id="Group_33" data-name="Group 33" transform="translate(4.967 23.23)">
      <g id="Group_32" data-name="Group 32">
        <path id="Path_8" data-name="Path 8" d="M160.266,215.9h-5.721a.423.423,0,1,0,0,.845h5.721a.423.423,0,1,0,0-.845Z" transform="translate(-154.122 -215.895)"/>
      </g>
    </g>
  </g>
</svg>
