<svg xmlns="http://www.w3.org/2000/svg" width="16.5" height="10.026" viewBox="0 0 16.5 10.026">
  <g id="Group_37" data-name="Group 37" transform="translate(0 -100.445)">
    <g id="Group_35" data-name="Group 35" transform="translate(0 100.445)">
      <path id="Path_9" data-name="Path 9" d="M16.489,101.289a.846.846,0,0,0-.845-.844h0l-14.8.02a.845.845,0,0,0-.844.846l.011,8.315a.845.845,0,0,0,.845.844h0l14.8-.02a.846.846,0,0,0,.844-.846Zm-1.774,0-6.464,4.494-6.477-4.476Zm-3.731,5.342,3.834,2.973-13.148.018,3.857-2.991a.423.423,0,0,0-.518-.668L.856,109.187.846,101.7l7.165,4.952a.423.423,0,0,0,.481,0l7.151-4.971.011,7.511-4.153-3.22a.423.423,0,0,0-.518.668Z" transform="translate(0 -100.445)" fill="#eb061e"/>
    </g>
  </g>
</svg>
