<svg xmlns="http://www.w3.org/2000/svg" width="13.898" height="18.497" viewBox="0 0 13.898 18.497">
  <g id="Group_119" data-name="Group 119" transform="translate(-63.95 0.05)">
    <g id="Group_118" data-name="Group 118" transform="translate(64)">
      <g id="Group_117" data-name="Group 117" transform="translate(0)">
        <path id="Path_13" data-name="Path 13" d="M77.686,3.945,73.853.112A.383.383,0,0,0,73.582,0H65.533A1.535,1.535,0,0,0,64,1.533V16.864A1.535,1.535,0,0,0,65.533,18.4H76.265A1.535,1.535,0,0,0,77.8,16.864V4.216A.383.383,0,0,0,77.686,3.945Zm-3.72-2.637,2.524,2.524H74.732a.768.768,0,0,1-.767-.767Zm3.066,15.555a.768.768,0,0,1-.767.767H65.533a.768.768,0,0,1-.767-.767V1.533a.768.768,0,0,1,.767-.767H73.2v2.3A1.535,1.535,0,0,0,74.732,4.6h2.3Z" transform="translate(-64)" fill="#222" stroke="#222" stroke-width="0.1"/>
        <path id="Path_14" data-name="Path 14" d="M134.553,175.785a11.113,11.113,0,0,1-.917-.791c-.292-.292-.552-.575-.778-.844a8.581,8.581,0,0,0,.507-1.951c0-1.272-.46-1.533-1.15-1.533-.524,0-1.15.272-1.15,1.57a3.675,3.675,0,0,0,.934,2.073c-.152.464-.33,1-.531,1.6-.1.289-.2.557-.312.805-.09.04-.178.081-.262.123-.3.152-.594.289-.862.417-1.224.579-2.032.963-2.032,1.719,0,.549.6.89,1.15.89.713,0,1.789-.952,2.575-2.555a15.249,15.249,0,0,1,2.631-.71,4.4,4.4,0,0,0,1.693.965c.95,0,1.15-.549,1.15-1.01,0-.906-1.035-.906-1.533-.906A9.074,9.074,0,0,0,134.553,175.785Zm-5.4,3.313a.606.606,0,0,1-.383-.123c0-.272.81-.656,1.594-1.027l.152-.072C129.937,178.711,129.367,179.1,129.15,179.1Zm2.683-6.862c0-.8.249-.8.383-.8.271,0,.383,0,.383.767a6.146,6.146,0,0,1-.305,1.2A2.355,2.355,0,0,1,131.833,172.236Zm.294,4.119q.036-.1.07-.2c.142-.427.27-.81.384-1.155q.239.263.514.538c.072.072.25.234.487.436C133.11,176.075,132.607,176.2,132.127,176.355Zm4.305.2c0,.172,0,.244-.356.246a2.824,2.824,0,0,1-.644-.368c.108-.012.188-.018.233-.018C136.232,176.415,136.392,176.471,136.432,176.555Z" transform="translate(-125.7 -164.534)" fill="#222" stroke="#222" stroke-width="0.1"/>
      </g>
    </g>
  </g>
</svg>
