<svg xmlns="http://www.w3.org/2000/svg" width="18.593" height="16.423" viewBox="0 0 18.593 16.423">
  <g id="Group_90" data-name="Group 90" transform="translate(0.119 -20.078)">
    <path id="Path_10" data-name="Path 10" d="M62.912,84.482H50.625a.307.307,0,0,0-.307.307v8.6a.307.307,0,0,0,.307.307H62.912a.307.307,0,0,0,.307-.307v-8.6A.307.307,0,0,0,62.912,84.482Zm-11.69,8.6L53.7,89.618l1.355,1.894-.917,1.571Zm3.625,0,3.765-6.455,3.766,6.455ZM62.605,85.1v7.157l-3.728-6.389a.32.32,0,0,0-.531,0l-2.956,5.069-1.444-2.019a.306.306,0,0,0-.5,0l-2.514,3.52V85.1Z" transform="translate(-47.591 -60.801)" fill="#222" stroke="#222" stroke-width="0.2"/>
    <path id="Path_11" data-name="Path 11" d="M18.324,31.564l-.853-3.183V22.76a.922.922,0,0,0-.921-.921h-.833l-.256-.96a.923.923,0,0,0-1.129-.649L8.327,21.838H1.806a.922.922,0,0,0-.921.921v1.072l-.2.053a.927.927,0,0,0-.652,1.129L.884,28.2v5.621a.922.922,0,0,0,.921.921h.833l.256.959a.92.92,0,0,0,1.128.649h0l6.006-1.608H16.55a.922.922,0,0,0,.921-.922V32.746l.2-.054A.927.927,0,0,0,18.324,31.564ZM14.492,20.825a.307.307,0,0,1,.375.215l.213.8H10.7ZM.625,24.856a.311.311,0,0,1,.218-.378l.041-.011v1.355Zm3.238,10.9a.307.307,0,0,1-.375-.215l-.214-.8h4.38Zm12.994-1.937a.307.307,0,0,1-.307.307H1.806a.307.307,0,0,1-.307-.307V22.76a.307.307,0,0,1,.307-.307H16.55a.307.307,0,0,1,.307.307Zm.655-1.72-.041.012V30.755l.259.967A.311.311,0,0,1,17.512,32.1Z" transform="translate(0)" fill="#222" stroke="#222" stroke-width="0.2"/>
    <path id="Path_12" data-name="Path 12" d="M113.916,115.292a1.229,1.229,0,1,0-1.229-1.229A1.229,1.229,0,0,0,113.916,115.292Zm0-1.843a.614.614,0,1,1-.614.614A.614.614,0,0,1,113.916,113.449Z" transform="translate(-106.581 -87.618)" fill="#222" stroke="#222" stroke-width="0.2"/>
  </g>
</svg>
