<svg xmlns="http://www.w3.org/2000/svg" width="21.875" height="25" viewBox="0 0 21.875 25">
  <g id="Group_1" data-name="Group 1" transform="translate(-31.999)">
    <path id="Path_2" data-name="Path 2" d="M134.333,12.28A6.246,6.246,0,0,1,128,6.14a6.336,6.336,0,0,1,12.665,0A6.246,6.246,0,0,1,134.333,12.28Zm0-10.745a4.684,4.684,0,0,0-4.749,4.6,4.752,4.752,0,0,0,9.5,0A4.684,4.684,0,0,0,134.333,1.535Z" transform="translate(-91.396)" fill="#eb061e"/>
    <path id="Path_3" data-name="Path 3" d="M53.093,299.778H32.78a.774.774,0,0,1-.781-.767v-5.283a2.292,2.292,0,0,1,1.077-1.946,19.381,19.381,0,0,1,19.721,0,2.293,2.293,0,0,1,1.077,1.946v5.283A.774.774,0,0,1,53.093,299.778Zm-19.531-1.535h18.75v-4.516a.753.753,0,0,0-.343-.645,17.762,17.762,0,0,0-18.066,0,.752.752,0,0,0-.342.644Z" transform="translate(0 -274.778)" fill="#eb061e"/>
  </g>
</svg>
